<?xml version="1.0" encoding="UTF-8" standalone="no"?><!DOCTYPE svg PUBLIC "-//W3C//DTD SVG 1.1//EN" "http://www.w3.org/Graphics/SVG/1.1/DTD/svg11.dtd"><svg width="100%" height="100%" viewBox="0 0 100 100" version="1.1" xmlns="http://www.w3.org/2000/svg" xmlns:xlink="http://www.w3.org/1999/xlink" xml:space="preserve" xmlns:serif="http://www.serif.com/" style="fill-rule:evenodd;clip-rule:evenodd;"><clipPath id="_clip1"><rect id="BlackBishop.svg" x="0" y="0" width="100" height="100"/></clipPath><g clip-path="url(#_clip1)"><rect id="BlackBishop" x="0" y="0" width="100" height="100" style="fill:none;"/><g id="BlackBishop1" serif:id="BlackBishop"><g><g id="BlackBishop2" serif:id="BlackBishop"><path d="M89.619,86.157c-0.666,-0.393 -6.665,-6.772 -12.229,-6.772c-2.893,0 -5.161,0.945 -7.161,1.779c-2.029,0.845 -3.944,1.643 -6.717,1.643c-3.231,-0 -5.914,-1.068 -8.282,-2.008c-1.908,-0.758 -3.557,-1.414 -5.245,-1.414c-1.686,0 -3.335,0.656 -5.244,1.414c-2.367,0.94 -5.05,2.008 -8.281,2.008c-2.773,-0 -4.689,-0.798 -6.717,-1.643c-2,-0.834 -4.268,-1.779 -7.161,-1.779c-5.564,0 -11.564,6.379 -12.23,6.772c0,-0 2.423,-1.64 4.676,-1.64c2.255,0 4.207,1.711 7.555,1.711c1.717,-0 3.116,0.582 4.889,1.32c2.245,0.937 5.039,2.1 8.988,2.1c4.357,-0 7.886,-1.402 10.463,-2.425c1.172,-0.467 2.501,-0.996 3.063,-0.996c0.563,0 1.891,0.529 3.064,0.996c2.577,1.023 6.105,2.425 10.463,2.425c3.948,-0 6.743,-1.163 8.988,-2.1c1.772,-0.738 3.172,-1.32 4.89,-1.32c3.347,-0 5.884,-1.711 7.553,-1.711c1.669,0 4.704,1.639 4.704,1.639l-0.029,0.001Z" style="fill:#20201e;fill-rule:nonzero;"/><path d="M71.243,47.029c-0,-10.794 -8.513,-27.905 -15.029,-30.218c-0.226,-0.081 -0.46,-0.148 -0.699,-0.202c1.136,-0.456 1.949,-1.635 1.949,-3.024c-0,-1.781 -1.336,-3.225 -2.981,-3.225c-1.646,0 -2.983,1.444 -2.983,3.225c0,1.238 0.647,2.31 1.592,2.852c-1.335,0.094 -2.778,0.47 -4.265,1.118c-0.949,-0.467 -1.892,-0.801 -2.822,-0.984c1.087,-0.481 1.855,-1.637 1.855,-2.986c0,-1.781 -1.334,-3.225 -2.981,-3.225c-1.646,0 -2.981,1.444 -2.981,3.225c0,1.258 0.668,2.347 1.64,2.878c-0.505,0.061 -1.002,0.174 -1.488,0.348c-6.5,2.314 -14.823,18.791 -14.823,30.218c-0,9.112 3.412,16.963 7.351,22.646c0.587,1.684 1.478,1.734 1.671,1.942c0.001,0 0.001,-0.001 0.002,-0.001c-0.004,0.029 -0.781,5.492 -0.857,6.726c-0.117,1.902 -0.294,4.149 -0.294,4.149c4.298,2.046 9.007,3.233 14.123,3.233c5.117,0 9.594,-1.302 13.89,-3.346c-0.153,-1.521 -0.328,-3.039 -0.68,-5.321c-0.183,-1.194 -0.814,-5.443 -0.814,-5.443c0.192,-0.206 1.351,-1.779 1.351,-1.779c4.181,-5.712 8.265,-13.328 8.265,-22.801l0.008,-0.005Z" style="fill:#fff;fill-rule:nonzero;stroke:#20201e;stroke-width:1.47px;"/><path d="M36.356,71.618c3.486,-1.625 7.494,-3.049 12.687,-3.049c5.192,-0 9.198,1.423 12.683,3.045c0.191,-0.206 0.647,-0.734 1.588,-2.16c-2.932,-3.433 -7.2,-5.319 -14.182,-5.319c-7.449,-0 -11.515,2.102 -14.447,5.54c0.597,1.673 1.493,1.731 1.685,1.939l-0.014,0.004Z" style="fill-rule:nonzero;stroke:#000;stroke-width:0.59px;"/><path d="M62.998,82.372c-4.298,-2.043 -8.694,-3.056 -13.81,-3.056c-5.117,0 -9.906,1.127 -14.203,3.17c4.297,2.045 9.006,3.233 14.123,3.233c5.119,-0 9.599,-1.304 13.897,-3.347l-0.007,0Z" style="fill:#fff;fill-rule:nonzero;stroke:#000;stroke-width:1.13px;stroke-linejoin:bevel;"/><path d="M62.881,69.829c2.707,-4.894 6.269,-14.127 1.818,-29.838c-3.734,-13.182 -14.735,-26.044 -22.737,-23.186c-7.098,2.536 -14.824,20.693 -14.824,30.218c-0,9.113 3.411,16.963 7.35,22.646l28.402,0.15l-0.009,0.01Z" style="fill-rule:nonzero;stroke:#000;stroke-width:0.59px;"/><ellipse cx="44.793" cy="13.578" rx="2.981" ry="3.225" style="stroke:#000;stroke-width:0.59px;"/><path d="M61.527,71.606l-0.002,-0.003c-3.485,-1.621 -7.494,-2.98 -12.683,-2.98c-5.192,-0 -9.197,1.36 -12.683,2.983c0,0 -0.781,5.492 -0.857,6.729c-0.117,1.902 -0.294,4.149 -0.294,4.149c4.297,-2.043 9.088,-3.17 14.202,-3.17c5.018,-0 9.575,1.086 13.811,3.056c-0.153,-1.52 -0.329,-3.039 -0.68,-5.321c-0.192,-1.2 -0.821,-5.458 -0.821,-5.458l0.007,0.015Z" style="fill-rule:nonzero;stroke:#000;stroke-width:0.59px;stroke-linejoin:bevel;"/><path d="M61.399,78.968c-3.864,-1.298 -7.989,-2.011 -12.245,-2.011c-4.329,-0 -8.753,0.763 -12.721,2.11" style="fill:none;fill-rule:nonzero;stroke:#fff;stroke-width:0.59px;stroke-linecap:round;stroke-linejoin:bevel;"/><g><path d="M37.263,71.11c3.228,-1.406 6.93,-2.55 11.582,-2.55c4.678,0 8.393,1.156 11.633,2.571" style="fill:none;fill-rule:nonzero;stroke:#fff;stroke-width:0.59px;stroke-linecap:round;"/><path d="M62.582,68.629c-4.097,-3.546 -7.377,-4.496 -13.445,-4.496c-5.083,0 -10.328,1.456 -12.84,3.947" style="fill:none;fill-rule:nonzero;stroke:#fff;stroke-width:0.59px;stroke-linecap:round;"/></g><path d="M56.258,41.029l-1.387,1.511l-7.017,0l-0,-6.854l1.397,-1.511l-2.816,-3.047l-2.815,3.047l1.407,1.523l0,6.842l-7.06,0l-1.397,-1.511l-2.816,3.046l2.816,3.046l1.418,-1.523l7.039,-0l0,8.354l-1.407,1.523l2.815,3.046l2.816,-3.046l-1.397,-1.512l-0,-8.365l6.996,-0l1.408,1.523l2.816,-3.046l-2.816,-3.046Z" style="fill:#fff;fill-rule:nonzero;stroke:#000;stroke-width:0.59px;"/></g></g></g></g></svg>