<?xml version="1.0" encoding="UTF-8" standalone="no"?><!DOCTYPE svg PUBLIC "-//W3C//DTD SVG 1.1//EN" "http://www.w3.org/Graphics/SVG/1.1/DTD/svg11.dtd"><svg width="100%" height="100%" viewBox="0 0 100 100" version="1.1" xmlns="http://www.w3.org/2000/svg" xmlns:xlink="http://www.w3.org/1999/xlink" xml:space="preserve" xmlns:serif="http://www.serif.com/" style="fill-rule:evenodd;clip-rule:evenodd;"><rect id="BlackKing" x="0" y="0" width="100" height="100" style="fill:none;"/><g id="BlackKing1" serif:id="BlackKing"><g><g id="BlackQueen"><path d="M57.3,35.675c1.682,-1.032 2.392,-2.412 2.392,-3.93c-0,-0.445 0.06,-21.393 0.06,-21.393l-20.017,0c0,0 -0.094,21.128 -0.094,21.393c0,1.529 1.045,2.919 2.749,3.953c-1.205,0.182 -2.397,0.405 -3.576,0.674c1.885,1.25 3.667,2.71 5.314,4.375c2.335,2.356 4.267,4.966 5.783,7.779c1.517,-2.813 3.449,-5.423 5.782,-7.779c1.651,-1.665 3.434,-3.128 5.319,-4.378c-1.206,-0.271 -2.449,-0.49 -3.693,-0.684l-0.019,-0.01Z" style="fill-rule:nonzero;stroke:#000;stroke-width:0.39px;"/><path d="M75.713,83.286c-1.238,-2.576 -1.272,-5.944 -0.722,-8.219c0.563,-2.341 5.907,-6.77 5.907,-6.77c9.413,-9.499 11.568,-23.041 4.815,-30.243c-6.756,-7.203 -19.859,-5.337 -29.272,4.164c-2.811,2.838 -4.967,6.036 -6.442,9.319c-1.472,-3.283 -3.631,-6.481 -6.44,-9.319c-9.412,-9.501 -22.518,-11.367 -29.273,-4.164c-6.752,7.202 -4.596,20.744 4.815,30.243c0.425,0.429 5.116,4.429 5.68,6.77c0.563,2.338 0.641,5.699 -0.713,8.306l0.203,-0c-0.029,0.017 -0.059,0.029 -0.089,0.047c7.789,3.985 16.555,6.228 25.825,6.228c9.262,-0.014 17.904,-2.387 25.699,-6.373" style="fill-rule:nonzero;"/><g><path d="M25.546,82.809c7.496,-3.629 15.785,-5.643 24.602,-5.643c8.47,-0 16.6,2.158 23.852,5.222" style="fill-rule:nonzero;stroke:#fff;stroke-width:1.28px;stroke-linecap:round;"/><path d="M77.603,67.743c-7.807,-2.749 -17.374,-4.369 -27.711,-4.369c-10.427,0 -20.069,1.65 -27.914,4.443" style="fill-rule:nonzero;stroke:#fff;stroke-width:1.28px;stroke-linecap:round;"/></g><path d="M58.12,11.863l-16.797,15.621l16.797,-0l-16.797,-15.621l16.797,-0Z" style="fill:none;fill-rule:nonzero;stroke:#fff;stroke-width:0.79px;stroke-linejoin:bevel;"/><path d="M72.717,77.275c-7.189,-2.619 -14.838,-4.518 -22.771,-4.518c-8.087,-0 -15.876,1.952 -23.182,4.663" style="fill:none;fill-rule:nonzero;stroke:#fff;stroke-width:1.28px;stroke-linecap:round;"/><path d="M46.011,68.491l3.941,2.038l3.941,-2.038l-3.941,-2.051l-3.941,2.051Z" style="fill:#fff;fill-rule:nonzero;stroke:#000;stroke-width:0.4px;"/><path d="M29.91,71.148l4.202,1.354l3.569,-2.67l-4.203,-1.367l-3.568,2.683Z" style="fill:#fff;fill-rule:nonzero;stroke:#000;stroke-width:0.4px;"/><path d="M70.007,71.148l-4.215,1.354l-3.569,-2.67l4.203,-1.367l3.581,2.683Z" style="fill:#fff;fill-rule:nonzero;stroke:#000;stroke-width:0.4px;"/><rect x="41.323" y="11.863" width="16.805" height="15.621" style="fill:none;stroke:#fff;stroke-width:0.79px;stroke-linejoin:bevel;"/><ellipse cx="49.865" cy="34.591" rx="7.085" ry="5.429" style="fill:none;stroke:#fff;stroke-width:0.79px;"/></g></g></g></svg>