<?xml version="1.0" encoding="UTF-8" standalone="no"?><!DOCTYPE svg PUBLIC "-//W3C//DTD SVG 1.1//EN" "http://www.w3.org/Graphics/SVG/1.1/DTD/svg11.dtd"><svg width="100%" height="100%" viewBox="0 0 100 100" version="1.1" xmlns="http://www.w3.org/2000/svg" xmlns:xlink="http://www.w3.org/1999/xlink" xml:space="preserve" xmlns:serif="http://www.serif.com/" style="fill-rule:evenodd;clip-rule:evenodd;"><rect id="BlackKnight" x="0" y="0" width="100" height="100" style="fill:none;"/><g id="BlackKnight1" serif:id="BlackKnight"><g id="BlackKnight2" serif:id="BlackKnight"><path d="M69.832,19.662c-0,-0 -1.312,-7.447 -1.312,-8.488c-0,-1.038 -0.983,-1.211 -1.968,0.175c-0.984,1.386 -5.41,8.139 -5.41,8.139l8.681,0.162l0.009,0.012Z" style="fill:#20201e;fill-rule:nonzero;stroke:#20201e;stroke-width:1.04px;"/><path d="M11.004,76.787c0.445,-3.358 1.053,-6.559 1.793,-9.604l2.376,-1.002l-1.587,-2.003c0.905,-3.22 1.955,-6.251 3.109,-9.1l2.248,-0.672l-1.111,-2.007c1.208,-2.711 2.505,-5.239 3.852,-7.593l2.096,-0.444l-0.751,-1.828c1.509,-2.461 3.06,-4.708 4.6,-6.748l2.218,-0.257l-0.592,-1.825c1.8,-2.233 3.554,-4.175 5.178,-5.835l2.22,-0.132l-0.388,-1.679c3.958,-3.783 6.755,-5.624 6.755,-5.624l5.029,1.616c-0,0 2.404,-1.386 4.372,-2.77c0,-0 1.311,-4.618 1.749,-7.159c0.437,-2.539 1.748,-1.385 2.185,-0.692c0.439,0.692 4.975,6.004 4.975,6.004c-0,-0 2.713,-0.394 4.645,-0c2.841,0.577 4.154,2.597 7.434,5.888c2.391,2.399 3.826,4.503 4.645,6.754c0.82,2.251 -0.163,2.251 0.164,4.328c0.329,2.079 9.183,17.664 10.166,19.569c0.986,1.905 3.36,7.732 -1.311,11.43c-1.311,1.04 -2.297,1.559 -3.115,1.905c-0,0 -1.312,-0.346 -1.803,-1.038c-0.088,-0.124 -0.133,-0.2 -0.154,-0.242c-0.017,-0.048 -0.025,-0.048 -0,0c0.05,0.136 0.164,0.642 -0.339,1.28c-0.819,1.04 -1.873,0.963 -2.46,1.04c-0.874,0.115 -2.459,-0.694 -3.771,-2.771c-1.313,-2.08 -2.132,-2.772 -3.116,-3.984c-0.983,-1.212 -6.41,-3.894 -8.527,-7.62c-0.491,-0.863 -1.639,-0.518 -2.458,0.174c-0.82,0.693 -5.412,0.867 -7.379,-2.598c0,0 -0.93,9.109 2.952,15.413c6.394,10.39 17.215,12.986 20.496,22.687l-67.267,-0c0,-3.353 0.167,-6.569 0.47,-9.664l2.236,-1.248l-1.872,-1.948l0.038,-0.001Z" style="fill-rule:nonzero;stroke:#20201e;stroke-width:1.04px;"/><path d="M45.644,24.358c-0,0 -28.639,22.631 -28.639,63.498" style="fill:none;fill-rule:nonzero;stroke:#fff;stroke-width:1.04px;"/><path d="M82.002,65.757c-0.023,-0.038 -0.023,-0.038 0,-0Z" style="fill:none;fill-rule:nonzero;stroke:#20201e;stroke-width:1.04px;"/><path d="M51.546,40.061c-0.546,6.464 2.297,11.082 2.406,11.486c-0,-0 -6.888,-3.751 -7.544,-8.717" style="fill:none;fill-rule:nonzero;stroke:#fff;stroke-width:1.04px;"/><path d="M53.947,51.541c0,-0 -4.591,2.368 -7.98,0.867" style="fill:none;fill-rule:nonzero;stroke:#fff;stroke-width:1.04px;"/><path d="M82.156,66.007c0,-0 -3.061,-4.159 -3.937,-6.063" style="fill:none;fill-rule:nonzero;stroke:#20201e;stroke-width:1.04px;"/><path d="M63.291,27.644c-0,-0 5.042,0.027 6.723,2.943c2.296,3.984 -0.327,4.503 -0.327,4.503c-0,-0 -2.624,0.867 -4.428,-1.731c-1.92,-2.766 -0.328,-4.503 -0.328,-4.503l-1.632,-1.212l-0.008,-0Z" style="fill:none;fill-rule:nonzero;stroke:#fff;stroke-width:1.04px;"/><path d="M87.727,57c-1.804,-0.518 -2.952,-0.348 -3.77,0.175c0,-0 0.818,-2.6 -0.656,-4.851c-1.477,-2.251 -3.937,-2.424 -6.067,-6.753" style="fill:none;fill-rule:nonzero;stroke:#fff;stroke-width:1.04px;"/><path d="M39.849,30.08l-3.111,-2.086" style="fill:none;fill-rule:nonzero;stroke:#fff;stroke-width:1.04px;"/><path d="M33.454,37.525l-3.115,-1.562" style="fill:none;fill-rule:nonzero;stroke:#fff;stroke-width:1.04px;"/><path d="M27.717,46.157l-3.608,-1.561" style="fill:none;fill-rule:nonzero;stroke:#fff;stroke-width:1.04px;"/><path d="M23.123,56.05l-3.769,-1.386" style="fill:none;fill-rule:nonzero;stroke:#fff;stroke-width:1.04px;"/><path d="M19.517,67.656l-3.936,-1.212" style="fill:none;fill-rule:nonzero;stroke:#fff;stroke-width:1.04px;"/><path d="M17.385,79.423l-4.098,-0.512" style="fill:none;fill-rule:nonzero;stroke:#fff;stroke-width:1.04px;"/></g></g></svg>