<?xml version="1.0" encoding="UTF-8" standalone="no"?><!DOCTYPE svg PUBLIC "-//W3C//DTD SVG 1.1//EN" "http://www.w3.org/Graphics/SVG/1.1/DTD/svg11.dtd"><svg width="100%" height="100%" viewBox="0 0 100 100" version="1.1" xmlns="http://www.w3.org/2000/svg" xmlns:xlink="http://www.w3.org/1999/xlink" xml:space="preserve" xmlns:serif="http://www.serif.com/" style="fill-rule:evenodd;clip-rule:evenodd;stroke-linejoin:round;"><g><rect id="BlackPawn" x="0" y="0" width="100" height="100" style="fill:none;"/><g id="BlackPawn1" serif:id="BlackPawn"><g><path d="M60.075,78.169c-4.444,-9.509 -3.996,-26.448 -3.623,-33.01c7.027,-0.52 12.081,-1.955 12.081,-3.646c-0,-1.659 -4.866,-3.073 -11.69,-3.616c4.358,-2.421 7.34,-7.315 7.34,-12.964c0,-8.053 -6.052,-14.581 -13.52,-14.581c-7.471,0 -13.524,6.528 -13.524,14.581c0,5.649 2.983,10.543 7.34,12.964c-6.822,0.543 -11.689,1.957 -11.689,3.616c0,1.691 5.056,3.126 12.082,3.646c0.372,6.563 0.821,23.501 -3.622,33.01c-8.708,1.887 -14.818,6.318 -14.818,11.479l48.458,-0c-0,-5.161 -6.101,-9.593 -14.808,-11.484l-0.007,0.005Z" style="fill-rule:nonzero;stroke:#000;stroke-width:0.97px;"/></g></g></g></svg>