<?xml version="1.0" encoding="UTF-8" standalone="no"?><!DOCTYPE svg PUBLIC "-//W3C//DTD SVG 1.1//EN" "http://www.w3.org/Graphics/SVG/1.1/DTD/svg11.dtd"><svg width="100%" height="100%" viewBox="0 0 100 100" version="1.1" xmlns="http://www.w3.org/2000/svg" xmlns:xlink="http://www.w3.org/1999/xlink" xml:space="preserve" xmlns:serif="http://www.serif.com/" style="fill-rule:evenodd;clip-rule:evenodd;stroke-linejoin:bevel;"><rect id="BlackQueen" x="0" y="0" width="100" height="100" style="fill:none;"/><g id="BlackQueen1" serif:id="BlackQueen"><g><g id="BlackKing"><path d="M89.175,31.139c0.963,-1.85 0.407,-4.223 -1.246,-5.302c-1.651,-1.079 -3.772,-0.455 -4.737,1.394c-0.827,1.585 -0.533,3.552 0.607,4.761c-4.719,6.4 -13.33,18.073 -15.41,20.903c-0.611,-0.305 -1.243,-0.594 -1.9,-0.866c0.185,-2.17 1.549,-18.74 2.274,-27.552c1.571,0.04 3.021,-1.124 3.432,-2.9c0.479,-2.072 -0.634,-4.186 -2.485,-4.724c-1.854,-0.535 -3.743,0.71 -4.223,2.781c-0.411,1.775 0.35,3.58 1.743,4.399c-3.413,8.662 -10.034,25.476 -10.051,25.546c-0.003,0.016 -0.001,0.033 -0.004,0.05c-0.602,-0.081 -1.22,-0.151 -1.849,-0.209c-0.126,-0.932 -2.965,-20.422 -4.446,-30.573c1.701,-0.445 2.97,-2.149 2.97,-4.188c-0,-2.378 -1.724,-4.307 -3.851,-4.307c-2.125,0 -3.849,1.929 -3.849,4.307c-0,2.039 1.27,3.743 2.971,4.188c-1.473,10.104 -4.295,29.463 -4.443,30.556c-0.66,0.059 -1.302,0.13 -1.932,0.211c-0.004,-0.024 -0.003,-0.044 -0.01,-0.067c-0.015,-0.069 -6.638,-16.885 -10.048,-25.546c1.391,-0.817 2.152,-2.623 1.742,-4.399c-0.48,-2.071 -2.37,-3.316 -4.223,-2.779c-1.851,0.536 -2.965,2.651 -2.484,4.722c0.411,1.776 1.859,2.94 3.431,2.9c0.723,8.802 2.083,25.338 2.274,27.544c-0.646,0.262 -1.265,0.543 -1.867,0.839c-2.163,-2.94 -10.678,-14.485 -15.363,-20.834c1.143,-1.209 1.438,-3.176 0.611,-4.761c-0.964,-1.849 -3.086,-2.473 -4.739,-1.394c-1.651,1.078 -2.209,3.452 -1.245,5.301c0.827,1.583 2.504,2.265 4.007,1.747c2.818,8.208 11.912,34.624 12.259,34.988l0.004,0c0.006,0.046 0.9,6.598 0.998,8.771c0.099,2.162 -0.742,7.45 -0.681,7.481l0,0.005c0.001,-0 0.002,-0.003 0.003,-0.003c6.745,3.533 14.425,5.519 22.662,5.519c8.314,-0 23.321,-5.687 23.251,-5.724c-0.981,-2.316 -0.61,-16.052 -0.61,-16.052c0.347,-0.367 9.56,-26.562 12.451,-34.985c1.484,0.52 3.161,-0.165 3.988,-1.748" style="fill-rule:nonzero;stroke:#000;stroke-width:1.02px;"/><g><path d="M29.085,82.553c7.092,-3.269 13.73,-4.672 21.864,-4.672c7.811,-0 14.064,1.446 20.602,4.476" style="fill-rule:nonzero;stroke:#fff;stroke-width:1.11px;stroke-linecap:round;stroke-linejoin:miter;"/><path d="M70.202,67.235c-5.768,-2.48 -12.835,-3.938 -20.47,-3.938c-7.703,-0 -14.827,1.484 -20.623,4.003" style="fill-rule:nonzero;stroke:#fff;stroke-width:1.11px;stroke-linecap:round;stroke-linejoin:miter;"/></g><path d="M70.893,78.03c-6.384,-2.36 -12.884,-4.072 -20.202,-4.072c-7.457,-0 -14.643,1.761 -21.38,4.207" style="fill:none;fill-rule:nonzero;stroke:#fff;stroke-width:1.11px;stroke-linecap:round;stroke-linejoin:miter;"/><path d="M46.812,69.211l3.217,1.799l3.228,-1.799l-3.228,-1.799l-3.217,1.799Z" style="fill:#fff;fill-rule:nonzero;"/><path d="M66.419,71.555l-3.432,1.204l-2.922,-2.357l3.432,-1.204l2.922,2.357Z" style="fill:#fff;fill-rule:nonzero;"/><path d="M33.65,71.555l3.432,1.204l2.922,-2.357l-3.431,-1.204l-2.923,2.357Z" style="fill:#fff;fill-rule:nonzero;"/></g></g></g></svg>