<?xml version="1.0" encoding="UTF-8" standalone="no"?><!DOCTYPE svg PUBLIC "-//W3C//DTD SVG 1.1//EN" "http://www.w3.org/Graphics/SVG/1.1/DTD/svg11.dtd"><svg width="100%" height="100%" viewBox="0 0 100 100" version="1.1" xmlns="http://www.w3.org/2000/svg" xmlns:xlink="http://www.w3.org/1999/xlink" xml:space="preserve" xmlns:serif="http://www.serif.com/" style="fill-rule:evenodd;clip-rule:evenodd;stroke-linecap:square;"><rect id="BlackRook" x="0" y="0" width="100" height="100" style="fill:none;"/><g id="BlackRook1" serif:id="BlackRook"><g><g id="BlackRook2" serif:id="BlackRook"><path d="M78.917,81.433l-1.184,0l0,-6.993l-5.702,-6.276l-0.058,0l-0,-37.019l0.058,0l7.419,-6.974l0.047,-0l0,-11.931c0,-1.043 -0.823,-1.888 -1.837,-1.888l-10.265,0l0,6.486l-5.76,1.875l-5.309,-1.875l0,-6.486l-12.651,0l-0,6.486l-5.31,1.875l-5.76,-1.875l0,-6.486l-10.262,0c-1.015,0 -1.837,0.845 -1.837,1.888l0,11.931l0.021,-0l7.446,6.974l-0,37.019l-5.703,6.276l-0,6.993l-1.186,0c-1.061,0 -1.921,0.846 -1.921,1.89l-0,4.437c-0,1.042 0.86,1.888 1.921,1.888l57.831,-0c1.063,-0 1.922,-0.846 1.922,-1.888l0,-4.437c0,-1.033 -0.86,-1.886 -1.923,-1.886l0.003,-0.004Z" style="fill-rule:nonzero;stroke:#000;stroke-width:1.03px;"/><path d="M24.149,81.433l51.283,0" style="fill:none;fill-rule:nonzero;stroke:#fff;stroke-width:1.03px;stroke-linecap:round;"/><path d="M24.375,74.443l50.832,-0" style="fill:none;fill-rule:nonzero;stroke:#fff;stroke-width:1.03px;stroke-linecap:round;"/><path d="M69.785,68.173l-40.439,-0" style="fill:none;fill-rule:nonzero;stroke:#fff;stroke-width:1.03px;stroke-linecap:round;"/><path d="M29.571,31.153l40.44,0" style="fill:none;fill-rule:nonzero;stroke:#fff;stroke-width:1.03px;stroke-linecap:round;"/><path d="M23.02,24.175l54.896,-0" style="fill:none;fill-rule:nonzero;stroke:#fff;stroke-width:1.03px;stroke-linecap:round;"/></g></g></g></svg>