<?xml version="1.0" encoding="UTF-8" standalone="no"?><!DOCTYPE svg PUBLIC "-//W3C//DTD SVG 1.1//EN" "http://www.w3.org/Graphics/SVG/1.1/DTD/svg11.dtd"><svg width="100%" height="100%" viewBox="0 0 200 200" version="1.1" xmlns="http://www.w3.org/2000/svg" xmlns:xlink="http://www.w3.org/1999/xlink" xml:space="preserve" xmlns:serif="http://www.serif.com/" style="fill-rule:evenodd;clip-rule:evenodd;stroke-linejoin:bevel;"><g><path d="M200,0l-200,200l200,-0l0,-200Z" style="fill:none;"/><clipPath id="_clip1"><path d="M200,0l-200,200l200,-0l0,-200Z"/></clipPath><g clip-path="url(#_clip1)"><g id="BlackKing"><path d="M188.927,57.185c2.187,-4.199 0.925,-9.586 -2.829,-12.034c-3.746,-2.449 -8.563,-1.033 -10.752,3.163c-1.878,3.599 -1.211,8.063 1.379,10.809c-10.712,14.526 -30.259,41.024 -34.982,47.448c-1.386,-0.691 -2.822,-1.349 -4.314,-1.966c0.422,-4.925 3.518,-42.539 5.163,-62.542c3.567,0.091 6.857,-2.552 7.791,-6.583c1.087,-4.705 -1.439,-9.503 -5.642,-10.723c-4.209,-1.215 -8.497,1.61 -9.586,6.313c-0.932,4.029 0.795,8.126 3.957,9.986c-7.747,19.661 -22.778,57.829 -22.815,57.987c-0.008,0.038 -0.003,0.077 -0.01,0.116c-1.366,-0.185 -2.77,-0.343 -4.196,-0.476c-0.286,-2.114 -6.732,-46.358 -10.094,-69.401c3.862,-1.01 6.742,-4.877 6.742,-9.505c0,-5.399 -3.912,-9.777 -8.741,-9.777c-4.823,-0 -8.738,4.378 -8.738,9.777c0,4.628 2.883,8.494 6.744,9.505c-3.344,22.938 -9.75,66.882 -10.086,69.364c-1.496,0.132 -2.955,0.295 -4.384,0.479c-0.01,-0.055 -0.008,-0.101 -0.022,-0.153c-0.036,-0.157 -15.069,-38.329 -22.81,-57.99c3.158,-1.855 4.886,-5.953 3.955,-9.985c-1.09,-4.701 -5.382,-7.527 -9.588,-6.309c-4.2,1.218 -6.729,6.018 -5.639,10.719c0.934,4.033 4.221,6.675 7.789,6.582c1.643,19.982 4.729,57.518 5.163,62.526c-1.467,0.594 -2.873,1.234 -4.239,1.905c-4.909,-6.675 -24.239,-32.882 -34.873,-47.294c2.593,-2.745 3.264,-7.21 1.386,-10.807c-2.187,-4.198 -7.006,-5.614 -10.757,-3.164c-3.749,2.447 -5.015,7.835 -2.825,12.033c1.875,3.594 5.682,5.142 9.094,3.966c6.396,18.632 27.04,78.597 27.83,79.423l0.007,-0c0.015,0.103 2.044,14.977 2.267,19.909c0.224,4.907 -1.684,16.911 -1.546,16.982l-0,0.011c0.002,-0 0.005,-0.006 0.007,-0.006c15.309,8.019 32.744,12.527 51.443,12.527c18.872,-0 52.938,-12.909 52.779,-12.993c-2.227,-5.257 -1.386,-36.437 -1.386,-36.437c0.788,-0.834 21.703,-60.295 28.265,-79.416c3.369,1.179 7.174,-0.374 9.052,-3.968" style="fill-rule:nonzero;stroke:#000;stroke-width:2.32px;"/><g><path d="M52.524,173.894c16.098,-7.42 31.166,-10.605 49.63,-10.605c17.732,0 31.927,3.284 46.768,10.162" style="fill-rule:nonzero;stroke:#fff;stroke-width:2.52px;stroke-linecap:round;stroke-linejoin:miter;"/><path d="M145.859,139.123c-13.094,-5.628 -29.137,-8.94 -46.467,-8.94c-17.486,0 -33.657,3.371 -46.814,9.089" style="fill-rule:nonzero;stroke:#fff;stroke-width:2.52px;stroke-linecap:round;stroke-linejoin:miter;"/></g><path d="M147.428,163.627c-14.493,-5.356 -29.248,-9.243 -45.86,-9.243c-16.927,0 -33.239,3.999 -48.533,9.549" style="fill:none;fill-rule:nonzero;stroke:#fff;stroke-width:2.52px;stroke-linecap:round;stroke-linejoin:miter;"/><path d="M92.763,143.61l7.303,4.083l7.328,-4.083l-7.328,-4.085l-7.303,4.085Z" style="fill:#fff;fill-rule:nonzero;"/><path d="M137.271,148.93l-7.79,2.733l-6.634,-5.35l7.79,-2.732l6.634,5.349Z" style="fill:#fff;fill-rule:nonzero;"/><path d="M62.886,148.93l7.791,2.733l6.633,-5.35l-7.79,-2.732l-6.634,5.349Z" style="fill:#fff;fill-rule:nonzero;"/></g></g><path d="M0,0l0,200l200,-200l-200,0Z" style="fill:none;"/><clipPath id="_clip2"><path d="M0,0l0,200l200,-200l-200,0Z"/></clipPath><g clip-path="url(#_clip2)"><g><g id="WhiteKing"><path d="M152.509,176.888c-15.603,-8.144 -32.702,-12.42 -51.58,-12.42c-18.877,0 -37.177,4.669 -53.292,12.814c15.602,8.137 33.3,12.718 52.181,12.718c18.904,0.028 36.599,-4.967 52.698,-13.092l-0.007,-0.02Z" style="fill:#fff;fill-rule:nonzero;stroke:#20201e;stroke-width:3.02px;"/><path d="M151.351,140.338l-0.009,-0.019c-14.025,-6.455 -30.344,-10.382 -51.531,-10.382c-21.213,0 -37.615,3.93 -52.051,10.401c0,0 1.575,14.94 1.64,19.881c0.078,5.564 -1.316,16.966 -1.316,16.966c16.115,-8.145 33.975,-12.723 52.853,-12.723c18.516,-0 37.334,4.241 51.579,12.419c-2.34,-5.225 -1.157,-36.521 -1.157,-36.521l-0.008,-0.022Z" style="fill:#fff;fill-rule:nonzero;stroke:#20201e;stroke-width:3.02px;"/><path d="M48.141,177.088c15.168,-8.052 33.918,-12.628 52.796,-12.628c18.516,-0 34.06,2.915 51.579,12.419c-0.705,-2.196 -1.178,-9.021 -1.331,-11.496c-15.507,-6.431 -32.609,-10.081 -50.211,-10.081c-17.797,-0 -35.703,3.849 -51.767,10.412c-0.335,2.555 -1.055,11.341 -1.055,11.341l-0.011,0.033Z" style="fill:#fff;fill-rule:nonzero;stroke:#20201e;stroke-width:3.02px;"/><path d="M186.149,45.089c-3.749,-2.445 -8.567,-1.032 -10.757,3.16c-1.881,3.592 -1.211,8.047 1.378,10.79c-10.714,14.499 -30.27,40.951 -34.99,47.368c-1.386,-0.691 -2.823,-1.347 -4.317,-1.96c0.424,-4.92 3.521,-42.469 5.163,-62.44c3.569,0.09 6.862,-2.548 7.794,-6.57c1.087,-4.698 -1.437,-9.49 -5.646,-10.705c-4.202,-1.216 -8.494,1.605 -9.584,6.3c-0.935,4.023 0.796,8.115 3.958,9.966c-7.748,19.633 -22.783,57.733 -22.82,57.891c-0.008,0.037 -0.003,0.077 -0.01,0.116c-1.367,-0.181 -2.771,-0.342 -4.202,-0.474c-0.285,-2.113 -6.731,-46.28 -10.092,-69.282c3.863,-1.01 6.738,-4.869 6.738,-9.491c0,-5.386 -3.91,-9.758 -8.738,-9.758c-4.827,-0 -8.74,4.372 -8.74,9.758c0,4.621 2.884,8.48 6.744,9.491c-3.346,22.899 -9.753,66.767 -10.09,69.245c-1.494,0.134 -2.956,0.293 -4.382,0.481c-0.01,-0.057 -0.007,-0.104 -0.022,-0.155c-0.035,-0.158 -15.073,-38.263 -22.816,-57.893c3.157,-1.851 4.885,-5.94 3.953,-9.966c-1.087,-4.695 -5.382,-7.516 -9.587,-6.3c-4.204,1.215 -6.731,6.007 -5.641,10.7c0.934,4.028 4.222,6.664 7.791,6.571c1.643,19.949 4.73,57.42 5.164,62.418c-1.467,0.598 -2.878,1.235 -4.239,1.907c-4.911,-6.668 -24.245,-32.829 -34.883,-47.216c2.594,-2.743 3.262,-7.198 1.386,-10.79c-2.187,-4.192 -7.007,-5.606 -10.76,-3.16c-3.749,2.443 -5.018,7.821 -2.83,12.013c1.881,3.589 5.688,5.132 9.102,3.96c6.397,18.599 27.046,78.459 27.836,79.286c14.233,-6.467 30.6,-10.401 51.808,-10.401c21.198,0 37.56,3.93 51.796,10.396c0.784,-0.829 21.705,-60.196 28.268,-79.281c3.415,1.172 7.221,-0.371 9.099,-3.96c2.109,-4.189 0.849,-9.567 -2.906,-12.01l0.074,-0.005Z" style="fill:#fff;fill-rule:nonzero;stroke:#20201e;stroke-width:3.02px;stroke-linejoin:miter;"/><path d="M92.789,143.181l7.304,4.076l7.33,-4.076l-7.33,-4.078l-7.304,4.078Z" style="fill-rule:nonzero;"/><path d="M62.904,148.464l7.793,2.698l6.635,-5.34l-7.793,-2.699l-6.635,5.341Z" style="fill-rule:nonzero;"/><path d="M137.308,148.492l-7.792,2.728l-6.635,-5.341l7.793,-2.727l6.634,5.34Z" style="fill-rule:nonzero;"/></g></g></g></g></svg>