<?xml version="1.0" encoding="UTF-8" standalone="no"?><!DOCTYPE svg PUBLIC "-//W3C//DTD SVG 1.1//EN" "http://www.w3.org/Graphics/SVG/1.1/DTD/svg11.dtd"><svg width="100%" height="100%" viewBox="0 0 100 100" version="1.1" xmlns="http://www.w3.org/2000/svg" xmlns:xlink="http://www.w3.org/1999/xlink" xml:space="preserve" xmlns:serif="http://www.serif.com/" style="fill-rule:evenodd;clip-rule:evenodd;stroke-linecap:round;stroke-linejoin:round;"><rect x="0" y="0" width="100" height="100" style="fill:none;"/><g><g id="WhiteBishop"><path d="M89.62,86.155c-0.666,-0.393 -6.665,-6.771 -12.23,-6.771c-2.893,-0 -5.161,0.945 -7.161,1.777c-2.029,0.846 -3.944,1.644 -6.717,1.644c-3.231,0 -5.914,-1.067 -8.282,-2.008c-1.908,-0.758 -3.558,-1.414 -5.245,-1.414c-1.686,0 -3.334,0.656 -5.243,1.414c-2.367,0.941 -5.05,2.008 -8.282,2.008c-2.773,0 -4.689,-0.798 -6.717,-1.644c-2,-0.832 -4.269,-1.777 -7.162,-1.777c-5.563,-0 -11.563,6.378 -12.229,6.771c0,0 2.554,-1.639 4.677,-1.639c2.122,-0 4.206,1.71 7.553,1.71c1.718,-0 3.117,0.583 4.89,1.322c2.245,0.935 5.04,2.1 8.988,2.1c4.357,-0 7.886,-1.402 10.463,-2.426c1.173,-0.467 2.501,-0.996 3.063,-0.996c0.563,-0 1.891,0.529 3.064,0.996c2.577,1.024 6.105,2.426 10.463,2.426c3.947,-0 6.742,-1.165 8.988,-2.1c1.771,-0.739 3.172,-1.322 4.889,-1.322c3.348,-0 4.728,-1.71 7.554,-1.71c2.848,-0 4.704,1.639 4.704,1.639l-0.028,0Z" style="fill:#fff;fill-rule:nonzero;stroke:#20201e;stroke-width:1.47px;"/><path d="M56.12,16.803c-0.226,-0.08 -0.46,-0.147 -0.698,-0.202c1.135,-0.456 1.947,-1.634 1.947,-3.023c0,-1.782 -1.334,-3.226 -2.981,-3.226c-1.646,0 -2.981,1.444 -2.981,3.226c0,1.238 0.645,2.31 1.591,2.852c-8.556,0.602 -21.545,12.797 -21.959,33.446c-0.165,8.204 0.797,14.92 3.445,19.798l28.629,-0.22c4.185,-5.714 8.034,-12.946 8.034,-22.429c0,-12.616 -8.51,-27.915 -15.027,-30.231l0,0.009Z" style="fill:#fff;fill-rule:nonzero;stroke:#20201e;stroke-width:1.47px;stroke-linecap:butt;stroke-linejoin:miter;"/><path d="M64.695,39.993c-3.147,-11.113 -11.457,-21.992 -18.784,-23.429c1.089,-0.48 1.856,-1.636 1.856,-2.985c-0,-1.782 -1.335,-3.226 -2.981,-3.226c-1.646,0 -2.981,1.444 -2.981,3.226c-0,1.258 0.668,2.346 1.64,2.878c-0.506,0.06 -1.002,0.173 -1.488,0.347c-6.5,2.315 -14.824,17.866 -14.824,30.222c-0,9.114 3.412,16.966 7.351,22.649l28.629,-0.221c2.709,-4.893 6.026,-13.755 1.578,-29.463l0.004,0.002Z" style="fill:#fff;fill-rule:nonzero;stroke:#20201e;stroke-width:1.47px;stroke-linecap:butt;stroke-linejoin:miter;"/><path d="M63.02,82.381c-3.597,-1.785 -8.693,-3.056 -13.808,-3.056c-5.117,-0 -9.907,1.127 -14.204,3.171c4.297,2.043 9.007,3.231 14.123,3.231c5.119,0 9.599,-1.304 13.897,-3.346l-0.008,0Z" style="fill:#fff;fill-rule:nonzero;stroke:#000;stroke-width:1.13px;stroke-linecap:butt;stroke-linejoin:bevel;"/><path d="M61.528,71.614l-0.003,-0.004c-3.486,-1.621 -7.496,-2.98 -12.683,-2.98c-5.193,0 -9.197,1.361 -12.684,2.984c0,0 -0.781,5.491 -0.857,6.731c-0.117,1.901 -0.294,4.149 -0.294,4.149c4.297,-2.044 9.087,-3.171 14.204,-3.171c5.017,-0 9.573,1.086 13.809,3.057c-0.152,-1.522 -0.328,-3.042 -0.679,-5.323c-0.192,-1.211 -0.821,-5.458 -0.821,-5.458l0.008,0.015Z" style="fill:#fff;fill-rule:nonzero;stroke:#20201e;stroke-width:1.47px;stroke-linecap:butt;stroke-linejoin:bevel;"/><path d="M35.002,82.497c4.297,-2.045 9.087,-3.171 14.205,-3.171c5.016,-0 9.573,1.085 13.808,3.057c-0.109,-1.273 -0.369,-2.067 -0.533,-3.691c-4.256,-1.614 -8.572,-2.437 -13.341,-2.437c-4.824,0 -9.604,0.948 -13.902,2.596c-0.021,1.431 -0.245,3.647 -0.245,3.647l0.008,-0.001Z" style="fill:#fff;fill-rule:nonzero;stroke:#20201e;stroke-width:1.47px;stroke-linecap:butt;stroke-linejoin:bevel;"/><path d="M36.154,71.614c3.486,-1.622 7.494,-3.012 12.688,-3.048c4.422,-0.032 9.198,1.423 12.684,3.046c0.191,-0.207 1.001,-0.473 1.588,-2.16c-2.932,-3.434 -7.29,-5.228 -14.272,-5.228c-7.449,0 -11.427,2.01 -14.358,5.449c0.576,1.684 1.472,1.731 1.664,1.939l0.006,0.002Z" style="fill:#fff;fill-rule:nonzero;stroke:#20201e;stroke-width:1.47px;stroke-linecap:butt;stroke-linejoin:miter;"/><path d="M48.846,64.229l0,4.339" style="fill:none;fill-rule:nonzero;stroke:#000;stroke-width:1.13px;stroke-linecap:butt;stroke-linejoin:miter;"/><path d="M56.259,41.021l-1.397,1.512l-7.018,0l-0,-6.848l1.397,-1.512l-2.816,-3.044l-2.816,3.044l1.408,1.529l0,6.831l-7.05,0l-1.397,-1.512l-2.815,3.047l2.815,3.047l1.408,-1.524l7.039,0l0,8.367l-1.408,1.523l2.816,3.047l2.816,-3.047l-1.397,-1.512l-0,-8.378l7.007,0l1.408,1.524l2.815,-3.047l-2.815,-3.047Z" style="fill:#fff;fill-rule:nonzero;stroke:#000;stroke-width:0.85px;stroke-linecap:butt;stroke-linejoin:miter;"/></g></g></svg>