<?xml version="1.0" encoding="UTF-8" standalone="no"?><!DOCTYPE svg PUBLIC "-//W3C//DTD SVG 1.1//EN" "http://www.w3.org/Graphics/SVG/1.1/DTD/svg11.dtd"><svg width="100%" height="100%" viewBox="0 0 100 100" version="1.1" xmlns="http://www.w3.org/2000/svg" xmlns:xlink="http://www.w3.org/1999/xlink" xml:space="preserve" xmlns:serif="http://www.serif.com/" style="fill-rule:evenodd;clip-rule:evenodd;"><rect x="0" y="0" width="100" height="100" style="fill:none;"/><g><g id="WhiteQueen"><path d="M59.843,10.352l-20.016,0l-0,21.703c-0,3.195 4.504,5.789 10.058,5.789c5.557,-0 9.918,-2.594 9.918,-5.789c0,-0.282 0.038,-21.703 0.038,-21.703l0.002,0Z" style="fill:#fff;fill-rule:nonzero;stroke:#20201e;stroke-width:1.53px;"/><rect x="39.826" y="10.352" width="20.016" height="18.609" style="fill:#fff;stroke:#20201e;stroke-width:1.53px;"/><path d="M39.826,10.352l20.017,18.607" style="fill:none;fill-rule:nonzero;stroke:#20201e;stroke-width:1.53px;"/><path d="M59.843,10.352l-20.017,18.607" style="fill:none;fill-rule:nonzero;stroke:#20201e;stroke-width:1.53px;"/><path d="M75.682,83.226c-7.788,-3.986 -16.252,-6.083 -25.524,-6.083c-9.271,0 -18.137,2.236 -25.926,6.222c7.789,3.986 16.505,6.283 25.775,6.283c9.275,0.012 17.891,-2.426 25.674,-6.411l0.001,-0.011Z" style="fill:#fff;fill-rule:nonzero;stroke:#20201e;stroke-width:1.53px;stroke-linejoin:round;"/><path d="M79.573,69.553c0.447,-0.405 0.89,-0.821 1.325,-1.258c9.412,-9.501 11.568,-23.042 4.815,-30.243c-6.755,-7.203 -19.859,-5.337 -29.271,4.164c-2.811,2.837 -4.969,6.037 -6.442,9.318c-1.471,-3.281 -3.63,-6.481 -6.441,-9.318c-9.412,-9.501 -22.518,-11.367 -29.271,-4.164c-6.755,7.201 -4.599,20.743 4.814,30.243c0.436,0.439 0.881,0.856 1.331,1.261c8.127,-3.166 18.4,-5.058 29.575,-5.058c11.164,0 21.434,1.896 29.552,5.056l0.013,-0.001Z" style="fill:#fff;fill-rule:nonzero;stroke:#20201e;stroke-width:1.53px;stroke-linejoin:bevel;"/><path d="M50.008,51.546c1.473,-3.283 3.63,-6.481 6.442,-9.317c2.292,-2.316 4.805,-4.174 7.392,-5.561c-4.291,-1.252 -8.951,-1.94 -13.827,-1.94c-4.878,0 -9.543,0.69 -13.835,1.944c2.584,1.387 5.096,3.243 7.387,5.557c2.81,2.838 4.961,6.037 6.44,9.313l0.001,0.004Z" style="fill:#fff;fill-rule:nonzero;stroke:#20201e;stroke-width:1.53px;"/><path d="M79.462,69.553l-0.005,-0.007c-8.123,-3.162 -18.39,-5.051 -29.555,-5.051c-11.174,-0 -21.446,1.892 -29.573,5.058c0,0 3.898,3.168 4.462,5.507c0.564,2.339 0.805,5.692 -0.549,8.298c7.788,-3.986 16.655,-6.221 25.926,-6.221c9.094,0 17.849,2.239 25.524,6.083c-1.238,-2.574 -1.241,-5.886 -0.692,-8.16c0.56,-2.322 4.464,-5.495 4.464,-5.495l-0.002,-0.012Z" style="fill:#fff;fill-rule:nonzero;stroke:#20201e;stroke-width:1.53px;stroke-linejoin:bevel;"/><path d="M24.235,83.368c7.788,-3.986 16.655,-6.222 25.926,-6.222c9.094,0 17.847,2.239 25.523,6.084c-0.526,-1.1 -1.08,-3.908 -0.991,-5.475c-7.715,-3.146 -16.012,-4.867 -24.655,-4.867c-8.743,0 -17.127,1.756 -24.916,4.969c0.1,2.902 -0.298,4.36 -0.882,5.495l-0.005,0.016Z" style="fill:#fff;fill-rule:nonzero;stroke:#20201e;stroke-width:1.53px;stroke-linejoin:bevel;"/><path d="M46.203,68.805l3.855,1.999l3.841,-1.999l-3.841,-1.999l-3.855,1.999Z" style="fill-rule:nonzero;"/><path d="M30.451,71.41l4.103,1.329l3.494,-2.618l-4.103,-1.329l-3.494,2.618Z" style="fill-rule:nonzero;"/><path d="M69.652,71.41l-4.103,1.329l-3.493,-2.618l4.102,-1.329l3.494,2.618Z" style="fill-rule:nonzero;"/><ellipse cx="50.008" cy="35.023" rx="7.086" ry="5.428" style="fill:#fff;stroke:#20201e;stroke-width:1.53px;"/></g></g></svg>