<?xml version="1.0" encoding="UTF-8" standalone="no"?><!DOCTYPE svg PUBLIC "-//W3C//DTD SVG 1.1//EN" "http://www.w3.org/Graphics/SVG/1.1/DTD/svg11.dtd"><svg width="100%" height="100%" viewBox="0 0 100 100" version="1.1" xmlns="http://www.w3.org/2000/svg" xmlns:xlink="http://www.w3.org/1999/xlink" xml:space="preserve" xmlns:serif="http://www.serif.com/" style="fill-rule:evenodd;clip-rule:evenodd;"><rect x="0" y="0" width="100" height="100" style="fill:none;"/><g id="WhiteKnight"><path d="M68.179,19.662c0,-0 -1.305,-7.448 -1.305,-8.487c0,-1.039 -0.977,-1.212 -1.956,0.173c-0.979,1.385 -5.382,8.14 -5.382,8.14l8.635,0.173l0.008,0.001Z" style="fill:#fff;fill-rule:nonzero;stroke:#20201e;stroke-width:1.35px;"/><path d="M9.666,76.786c0.442,-3.358 1.048,-6.561 1.783,-9.604l2.363,-1.002l-1.577,-2.004c0.899,-3.22 1.943,-6.252 3.092,-9.102l2.236,-0.671l-1.106,-2.008c1.201,-2.71 2.492,-5.238 3.831,-7.592l2.085,-0.444l-0.748,-1.829c1.502,-2.46 3.045,-4.708 4.576,-6.748l2.207,-0.256l-0.589,-1.825c1.791,-2.234 3.537,-4.177 5.15,-5.837l2.208,-0.132l-0.386,-1.679c3.937,-3.783 6.719,-5.624 6.719,-5.624l5.002,1.617c-0,-0 2.391,-1.386 4.349,-2.772c-0,0 1.303,-4.618 1.738,-7.158c0.436,-2.54 1.74,-1.386 2.174,-0.693c0.436,0.693 4.948,6.003 4.948,6.003c0,-0 2.699,-0.392 4.621,-0c2.826,0.579 4.131,2.599 7.394,5.889c2.378,2.401 3.805,4.504 4.62,6.755c0.815,2.251 -0.163,2.251 0.162,4.33c0.328,2.078 9.134,17.664 10.111,19.569c0.981,1.906 3.343,7.732 -1.303,11.431c-1.304,1.039 -2.284,1.56 -3.098,1.904c0,0 -1.306,-0.344 -1.794,-1.037c-0.087,-0.124 -0.132,-0.199 -0.153,-0.242c-0.016,-0.046 -0.024,-0.049 -0,0c0.05,0.135 0.163,0.642 -0.337,1.279c-0.815,1.041 -1.862,0.963 -2.446,1.041c-0.87,0.115 -2.446,-0.692 -3.751,-2.771c-1.305,-2.079 -2.12,-2.773 -3.1,-3.984c-0.977,-1.213 -6.375,-3.895 -8.481,-7.621c-0.488,-0.864 -1.63,-0.519 -2.445,0.174c-0.815,0.693 -5.383,0.867 -7.338,-2.599c-0,0 -0.926,9.112 2.935,15.415c6.36,10.392 17.124,12.988 20.387,22.689l-66.894,-0c-0,-3.352 0.166,-6.571 0.467,-9.666l2.224,-1.246l-1.862,-1.924l0.026,-0.026Z" style="fill:#fff;fill-rule:nonzero;stroke:#20201e;stroke-width:1.35px;"/><path d="M44.122,24.359c-0,-0 -28.483,22.632 -28.483,63.503" style="fill:none;fill-rule:nonzero;stroke:#20201e;stroke-width:1.03px;"/><path d="M80.285,66.03c-0.023,-0.05 -0.023,-0.05 -0,-0Z" style="fill:none;fill-rule:nonzero;stroke:#20201e;stroke-width:1.03px;"/><path d="M49.992,40.057c-0.543,6.465 2.284,11.083 2.393,11.487c-0,-0 -6.851,-3.752 -7.503,-8.718" style="fill:none;fill-rule:nonzero;stroke:#20201e;stroke-width:1.03px;"/><path d="M52.38,51.551c0,-0 -4.567,2.368 -7.937,0.867" style="fill:none;fill-rule:nonzero;stroke:#20201e;stroke-width:1.03px;"/><path d="M80.438,66.267c-0,0 -3.045,-4.157 -3.916,-6.062" style="fill:none;fill-rule:nonzero;stroke:#20201e;stroke-width:1.03px;"/><path d="M61.674,27.651c-0,-0 5.015,0.025 6.688,2.943c2.282,3.984 -0.327,4.503 -0.327,4.503c0,-0 -2.609,0.867 -4.403,-1.731c-1.91,-2.767 -0.327,-4.503 -0.327,-4.503l-1.623,-1.213l-0.008,0.001Z" style="fill:none;fill-rule:nonzero;stroke:#20201e;stroke-width:1.03px;"/><path d="M85.979,57.26c-1.796,-0.519 -2.937,-0.345 -3.751,0.174c0,-0 0.814,-2.598 -0.652,-4.85c-1.47,-2.252 -3.915,-2.426 -6.035,-6.755" style="fill:none;fill-rule:nonzero;stroke:#20201e;stroke-width:1.03px;"/><path d="M38.357,30.074l-3.093,-2.077" style="fill:none;fill-rule:nonzero;stroke:#20201e;stroke-width:1.03px;"/><path d="M31.996,37.521l-3.099,-1.558" style="fill:none;fill-rule:nonzero;stroke:#20201e;stroke-width:1.03px;"/><path d="M26.29,46.166l-3.588,-1.561" style="fill:none;fill-rule:nonzero;stroke:#20201e;stroke-width:1.03px;"/><path d="M21.722,56.048l-3.751,-1.387" style="fill:none;fill-rule:nonzero;stroke:#20201e;stroke-width:1.03px;"/><path d="M18.135,67.654l-3.916,-1.212" style="fill:none;fill-rule:nonzero;stroke:#20201e;stroke-width:1.03px;"/><path d="M16.014,79.435l-4.077,-0.525" style="fill:none;fill-rule:nonzero;stroke:#20201e;stroke-width:1.03px;"/></g></svg>