<?xml version="1.0" encoding="UTF-8" standalone="no"?><!DOCTYPE svg PUBLIC "-//W3C//DTD SVG 1.1//EN" "http://www.w3.org/Graphics/SVG/1.1/DTD/svg11.dtd"><svg width="100%" height="100%" viewBox="0 0 100 100" version="1.1" xmlns="http://www.w3.org/2000/svg" xmlns:xlink="http://www.w3.org/1999/xlink" xml:space="preserve" xmlns:serif="http://www.serif.com/" style="fill-rule:evenodd;clip-rule:evenodd;stroke-linejoin:round;"><rect id="WhitePawn" x="0" y="0" width="100" height="100" style="fill:none;"/><g id="WhitePawn1" serif:id="WhitePawn"><g><path id="WhitePawn2" serif:id="WhitePawn" d="M57.872,78.17c-4.444,-9.511 -3.996,-26.449 -3.623,-33.011c7.027,-0.52 12.081,-1.955 12.081,-3.646c0,-1.659 -4.865,-3.074 -11.689,-3.616c4.357,-2.42 7.34,-7.316 7.34,-12.965c-0,-8.052 -6.052,-14.58 -13.52,-14.58c-7.472,0 -13.524,6.528 -13.524,14.58c-0,5.649 2.98,10.545 7.339,12.965c-6.822,0.542 -11.688,1.957 -11.688,3.616c-0,1.691 5.056,3.126 12.081,3.646c0.373,6.562 0.821,23.501 -3.622,33.011c-8.707,1.887 -14.818,6.316 -14.818,11.478l48.458,-0c0,-5.161 -6.101,-9.593 -14.808,-11.484l-0.007,0.006Z" style="fill:#fff;fill-rule:nonzero;stroke:#000;stroke-width:1.37px;"/></g></g></svg>