<?xml version="1.0" encoding="UTF-8" standalone="no"?><!DOCTYPE svg PUBLIC "-//W3C//DTD SVG 1.1//EN" "http://www.w3.org/Graphics/SVG/1.1/DTD/svg11.dtd"><svg width="100%" height="100%" viewBox="0 0 100 100" version="1.1" xmlns="http://www.w3.org/2000/svg" xmlns:xlink="http://www.w3.org/1999/xlink" xml:space="preserve" xmlns:serif="http://www.serif.com/" style="fill-rule:evenodd;clip-rule:evenodd;stroke-linejoin:bevel;"><clipPath id="_clip1"><rect id="WhiteKing.svg" x="0" y="0" width="100" height="100"/></clipPath><g clip-path="url(#_clip1)"><rect id="WhiteQueen" x="0" y="0" width="100" height="100" style="fill:none;"/><g id="WhiteQueen1" serif:id="WhiteQueen"><g><g id="WhiteKing"><path d="M73.132,83.871c-6.874,-3.587 -14.407,-5.471 -22.723,-5.471c-8.316,0 -16.377,2.057 -23.476,5.645c6.873,3.584 14.669,5.603 22.987,5.603c8.328,0.012 16.123,-2.189 23.215,-5.768l-0.003,-0.009Z" style="fill:#fff;fill-rule:nonzero;stroke:#20201e;stroke-width:1.33px;"/><path d="M72.622,67.77l-0.005,-0.008c-6.178,-2.844 -13.367,-4.574 -22.7,-4.574c-9.345,0 -16.571,1.731 -22.93,4.582c-0,0 0.694,6.582 0.722,8.758c0.035,2.451 -0.579,7.474 -0.579,7.474c7.098,-3.588 14.967,-5.605 23.283,-5.605c8.157,0 16.446,1.869 22.722,5.471c-1.031,-2.302 -0.51,-16.088 -0.51,-16.088l-0.003,-0.01Z" style="fill:#fff;fill-rule:nonzero;stroke:#20201e;stroke-width:1.33px;"/><path d="M27.155,83.96c6.682,-3.548 14.942,-5.564 23.258,-5.564c8.157,0 15.004,1.285 22.722,5.472c-0.311,-0.968 -0.519,-3.974 -0.586,-5.065c-6.832,-2.833 -14.366,-4.441 -22.12,-4.441c-7.84,0 -15.728,1.696 -22.805,4.587c-0.147,1.125 -0.465,4.996 -0.465,4.996l-0.004,0.015Z" style="fill:#fff;fill-rule:nonzero;stroke:#20201e;stroke-width:1.33px;"/><path d="M87.951,25.81c-1.652,-1.077 -3.774,-0.454 -4.739,1.392c-0.828,1.582 -0.533,3.545 0.608,4.754c-4.72,6.387 -13.336,18.04 -15.415,20.866c-0.61,-0.304 -1.243,-0.593 -1.901,-0.863c0.186,-2.167 1.551,-18.709 2.274,-27.507c1.572,0.04 3.023,-1.122 3.434,-2.894c0.479,-2.07 -0.634,-4.181 -2.488,-4.716c-1.851,-0.535 -3.742,0.707 -4.222,2.776c-0.412,1.772 0.351,3.574 1.744,4.39c-3.414,8.649 -10.037,25.433 -10.053,25.503c-0.003,0.016 -0.001,0.033 -0.005,0.051c-0.602,-0.08 -1.22,-0.151 -1.851,-0.209c-0.125,-0.931 -2.965,-20.388 -4.445,-30.521c1.702,-0.445 2.968,-2.145 2.968,-4.181c0,-2.372 -1.723,-4.299 -3.849,-4.299c-2.127,0 -3.85,1.927 -3.85,4.299c-0,2.036 1.27,3.736 2.97,4.181c-1.474,10.088 -4.296,29.413 -4.444,30.504c-0.659,0.06 -1.303,0.129 -1.931,0.212c-0.004,-0.025 -0.003,-0.046 -0.01,-0.068c-0.015,-0.07 -6.64,-16.856 -10.051,-25.503c1.391,-0.816 2.152,-2.617 1.742,-4.391c-0.479,-2.068 -2.372,-3.311 -4.224,-2.775c-1.852,0.535 -2.965,2.646 -2.485,4.714c0.412,1.774 1.86,2.935 3.432,2.894c0.724,8.789 2.084,25.295 2.275,27.497c-0.646,0.264 -1.268,0.545 -1.867,0.84c-2.163,-2.937 -10.681,-14.462 -15.367,-20.8c1.143,-1.208 1.437,-3.171 0.611,-4.753c-0.964,-1.847 -3.087,-2.469 -4.74,-1.392c-1.652,1.076 -2.211,3.445 -1.247,5.292c0.828,1.581 2.506,2.261 4.009,1.745c2.818,8.193 11.915,34.563 12.263,34.927c6.27,-2.848 13.48,-4.582 22.823,-4.582c9.338,0 16.546,1.732 22.817,4.58c0.346,-0.365 9.562,-26.518 12.453,-34.925c1.505,0.516 3.181,-0.164 4.009,-1.745c0.929,-1.845 0.374,-4.214 -1.28,-5.291l0.032,-0.002Z" style="fill:#fff;fill-rule:nonzero;stroke:#20201e;stroke-width:1.33px;stroke-linejoin:miter;"/><path d="M46.824,69.022l3.217,1.796l3.229,-1.796l-3.229,-1.796l-3.217,1.796Z" style="fill-rule:nonzero;"/><path d="M33.658,71.35l3.433,1.189l2.923,-2.353l-3.433,-1.189l-2.923,2.353Z" style="fill-rule:nonzero;"/><path d="M66.435,71.362l-3.432,1.202l-2.923,-2.353l3.433,-1.201l2.922,2.352Z" style="fill-rule:nonzero;"/></g></g></g></g></svg>