<?xml version="1.0" encoding="UTF-8" standalone="no"?><!DOCTYPE svg PUBLIC "-//W3C//DTD SVG 1.1//EN" "http://www.w3.org/Graphics/SVG/1.1/DTD/svg11.dtd"><svg width="100%" height="100%" viewBox="0 0 100 100" version="1.1" xmlns="http://www.w3.org/2000/svg" xmlns:xlink="http://www.w3.org/1999/xlink" xml:space="preserve" xmlns:serif="http://www.serif.com/" style="fill-rule:evenodd;clip-rule:evenodd;"><rect id="WhiteRook" x="0" y="0" width="100" height="100" style="fill:none;"/><g id="WhiteRook1" serif:id="WhiteRook"><g><g id="WhiteRook2" serif:id="WhiteRook"><path d="M78.916,89.648c1.062,-0 1.921,-0.845 1.921,-1.889l0,-4.437c0,-1.044 -0.859,-1.888 -1.921,-1.888l-57.832,0c-1.062,0 -1.921,0.844 -1.921,1.888l-0,4.437c-0,1.044 0.859,1.889 1.921,1.889l57.832,-0Z" style="fill:#fff;fill-rule:nonzero;stroke:#20201e;stroke-width:1.34px;"/><rect x="22.27" y="74.442" width="55.462" height="6.994" style="fill:#fff;stroke:#20201e;stroke-width:1.34px;"/><path d="M77.731,74.442l-5.702,-6.282l-44.057,-0l-5.702,6.282l55.461,-0Z" style="fill:#fff;fill-rule:nonzero;stroke:#20201e;stroke-width:1.34px;stroke-linejoin:bevel;"/><path d="M79.47,24.151l-7.441,6.995l-44.057,-0l-7.465,-6.995l58.963,-0Z" style="fill:#fff;fill-rule:nonzero;stroke:#20201e;stroke-width:1.34px;stroke-linejoin:round;"/><rect x="27.973" y="31.146" width="43.998" height="37.018" style="fill:#fff;stroke:#20201e;stroke-width:1.34px;"/><path d="M77.658,10.352l-10.263,0l-0,6.486l-5.759,1.874l-5.31,-1.874l-0,-6.486l-12.65,0l0,6.486l-5.31,1.874l-5.759,-1.874l-0,-6.486l-10.262,0c-1.015,0 -1.837,0.845 -1.837,1.887l-0,11.932l58.988,0l-0,-11.932c-0.002,-1.042 -0.824,-1.887 -1.838,-1.887Z" style="fill:#fff;fill-rule:nonzero;stroke:#20201e;stroke-width:1.34px;stroke-linecap:square;"/></g></g></g></svg>